IKResults
version=1
nRows=11
nColumns=40
inDegrees=yes

Units are S.I. units (second, meters, Newtons, ...)
Angles are in degrees.

endheader
time	pelvis_tilt	pelvis_list	pelvis_rotation	pelvis_tx	pelvis_ty	pelvis_tz	hip_flexion_r	hip_adduction_r	hip_rotation_r	knee_angle_r	knee_angle_r_beta	ankle_angle_r	subtalar_angle_r	mtp_angle_r	hip_flexion_l	hip_adduction_l	hip_rotation_l	knee_angle_l	knee_angle_l_beta	ankle_angle_l	subtalar_angle_l	mtp_angle_l	lumbar_extension	lumbar_bending	lumbar_rotation	arm_flex_r	arm_add_r	arm_rot_r	elbow_flex_r	pro_sup_r	wrist_flex_r	wrist_dev_r	arm_flex_l	arm_add_l	arm_rot_l	elbow_flex_l	pro_sup_l	wrist_flex_l	wrist_dev_l
      1.41000000	     16.02121010	      0.60137388	      7.21108487	     -0.32919553	      0.95637734	     -1.42179131	    -16.89043726	      3.36400126	     -7.51992937	    -13.44830520	     -0.23471720	      9.23838507	     -3.16285515	     -4.60638409	     -8.16852655	      0.47515165	     -6.16004427	    -55.32684620	     -0.96563563	      8.35573606	     18.54284611	     16.84854542	    -22.22063917	      1.16219017	     -3.05630551	     -3.90311248	    -10.59888263	     -1.41956136	     19.44975495	     89.95437384	      0.00000000	      0.00000000	      0.46080815	      7.58282700	      4.20138525	     19.14935925	     89.95437384	      0.00000000	      0.00000000
      1.42000000	     15.87370020	      0.74592356	      7.17498627	     -0.32244151	      0.95595529	     -1.42103149	    -17.06066264	      3.27094064	     -7.75634549	    -13.62224172	     -0.23775297	      9.40741881	     -3.19945195	     -4.53706131	     -6.95859950	      0.36847102	     -5.57023036	    -54.83471208	     -0.95704627	      8.80560626	     18.64370203	     16.56792719	    -22.10183298	      0.94590612	     -2.93386815	     -3.82630000	    -10.57844683	     -1.44325613	     19.72804353	     89.95437384	      0.00000000	      0.00000000	     -0.06863654	      7.64951296	      4.13985393	     19.08548577	     89.95437384	      0.00000000	      0.00000000
      1.43000000	     15.66146972	      0.92617312	      7.17089142	     -0.31581260	      0.95536066	     -1.42050249	    -17.19681731	      3.13434491	     -7.81633956	    -13.78861245	     -0.24065669	      9.57189143	     -3.21210684	     -4.47060815	     -5.71190207	      0.19588031	     -5.02591113	    -54.16916315	     -0.94543025	      9.40103345	     18.71540520	     16.27633166	    -21.94388132	      0.71059355	     -2.80291931	     -3.79097077	    -10.58259771	     -1.44048684	     20.04921057	     89.95437384	      0.00000000	      0.00000000	     -0.57684267	      7.69109856	      4.07510185	     19.06625282	     89.95437384	      0.00000000	      0.00000000
      1.44000000	     15.97615516	      1.59606682	      6.52681326	     -0.30819483	      0.95570079	     -1.41959463	    -18.14404415	      2.35001188	     -7.24425495	    -13.77140588	     -0.24035638	      9.88453471	     -2.88786604	     -4.24568154	     -5.61846653	     -0.64438672	     -4.24804599	    -52.65611606	     -0.91902260	     10.59644118	     18.67554685	     15.57044200	    -22.31353508	     -0.16270630	     -2.21882329	     -3.95891643	    -10.53768800	     -1.82877188	     20.71382012	     89.95437384	      0.00000000	      0.00000000	     -1.17544032	      7.75964674	      3.89872179	     19.17457194	     89.95437384	      0.00000000	      0.00000000
      1.45000000	     15.96522082	      1.84043563	      6.25421611	     -0.30133835	      0.95536234	     -1.41884275	    -18.70666601	      2.20132442	     -6.34077178	    -13.61024339	     -0.23754356	      9.96215621	     -3.92874749	     -3.72400928	     -4.81913834	     -0.92581944	     -3.57202354	    -51.47433165	     -0.89839657	     11.43440307	     18.62184969	     17.84513174	    -22.35849924	     -0.52894098	     -1.86167990	     -3.97805404	    -10.59187090	     -1.54711266	     21.20019781	     89.95437384	      0.00000000	      0.00000000	     -1.66925673	      7.84734478	      3.46228383	     19.16949451	     89.95437384	      0.00000000	      0.00000000
      1.46000000	     15.92568281	      2.15749181	      5.97282123	     -0.29448619	      0.95487987	     -1.41823961	    -19.05078014	      1.80778021	     -6.34492955	    -13.82194504	     -0.24123845	     10.37596083	     -3.54405091	     -3.41071488	     -4.02776776	     -1.26368550	     -2.85452988	    -50.12662200	     -0.87487460	     11.97259600	     18.60798683	     18.16022225	    -22.38180992	     -0.96392570	     -1.53612219	     -4.03774253	    -10.68951126	     -1.19756729	     21.81999345	     89.95437384	      0.00000000	      0.00000000	     -2.09976449	      7.86660951	      3.36479765	     19.04554046	     89.95437384	      0.00000000	      0.00000000
      1.47000000	     15.85375269	      2.38849647	      5.86846135	     -0.28756055	      0.95421524	     -1.41783123	    -19.42738207	      1.53363026	     -6.61900595	    -13.92901487	     -0.24310717	     10.90123810	     -2.54503923	     -3.34792827	     -3.16209446	     -1.44499331	     -2.22326331	    -48.74184023	     -0.85070560	     12.28564885	     18.56296529	     15.96667715	    -22.36391631	     -1.26116432	     -1.37331420	     -4.10007928	    -10.71425766	     -1.11165009	     22.47353276	     89.95437384	      0.00000000	      0.00000000	     -2.50822755	      7.79679357	      3.60763798	     18.89520525	     89.95437384	      0.00000000	      0.00000000
      1.48000000	     15.91068651	      2.63197409	      5.53461009	     -0.28065711	      0.95380597	     -1.41723291	    -19.94706235	      1.23060615	     -6.41058478	    -14.00466635	     -0.24442754	     11.17012815	     -2.54809163	     -3.18679092	     -2.57334246	     -1.64083602	     -1.39739443	    -47.09830318	     -0.82202046	     12.42557402	     18.52535538	     14.17764622	    -22.48470300	     -1.61645373	     -1.00212768	     -4.10674479	    -10.77754161	     -1.02252275	     23.16288997	     89.95437384	      0.00000000	      0.00000000	     -2.91895142	      7.82424810	      3.45924428	     18.75295810	     89.95437384	      0.00000000	      0.00000000
      1.49000000	     15.96872611	      2.92143073	      5.24749631	     -0.27376985	      0.95335530	     -1.41684492	    -20.48310393	      0.90321540	     -6.17205601	    -14.05483523	     -0.24530315	     11.44192430	     -2.62838786	     -3.15840479	     -2.04975813	     -1.93550092	     -0.71622968	    -45.31903707	     -0.79096641	     12.61510668	     18.45069919	     13.20369124	    -22.61684475	     -1.99944324	     -0.69808115	     -4.14821905	    -10.91991417	     -0.47747015	     23.82214129	     89.95437384	      0.00000000	      0.00000000	     -3.30065583	      7.82900574	      3.14095849	     18.59187298	     89.95437384	      0.00000000	      0.00000000
      1.50000000	     15.93044368	      3.13860970	      5.09612576	     -0.26697477	      0.95266387	     -1.41668539	    -20.89216344	      0.65510421	     -6.29298948	    -14.10080781	     -0.24610552	     11.76426493	     -2.37319830	     -3.20816851	     -1.36724346	     -2.12651376	     -0.08019329	    -43.58312313	     -0.76066900	     12.75418552	     18.31247257	     12.31408752	    -22.64681725	     -2.26015740	     -0.51498756	     -4.20043127	    -11.02719649	     -0.24287442	     24.61262008	     89.95437384	      0.00000000	      0.00000000	     -3.67204498	      7.80536393	      3.00529458	     18.41751419	     89.95437384	      0.00000000	      0.00000000
      1.51000000	     15.90713996	      3.34498681	      4.94032229	     -0.26031993	      0.95194788	     -1.41662596	    -21.28714972	      0.42542871	     -6.32528226	    -14.19655521	     -0.24777663	     12.02956411	     -2.38855510	     -3.32899473	     -0.73794439	     -2.34341670	      0.47043187	    -41.78199468	     -0.72923338	     12.67030314	     18.14507282	     11.82647190	    -22.72250075	     -2.50470412	     -0.37346268	     -4.17109379	    -11.16217376	      0.14655471	     25.32265946	     89.95437384	      0.00000000	      0.00000000	     -4.03572881	      7.76184398	      2.89538699	     18.29051467	     89.95437384	      0.00000000	      0.00000000
